<?xml version="1.0" encoding="UTF-8" standalone="no"?>
<svg
   height="16"
   viewBox="0 0 16 16"
   width="16"
   version="1.1"
   id="svg1"
   sodipodi:docname="TerrainData.svg"
   inkscape:version="1.3 (0e150ed6c4, 2023-07-21)"
   xmlns:inkscape="http://www.inkscape.org/namespaces/inkscape"
   xmlns:sodipodi="http://sodipodi.sourceforge.net/DTD/sodipodi-0.dtd"
   xmlns="http://www.w3.org/2000/svg"
   xmlns:svg="http://www.w3.org/2000/svg">
  <defs
     id="defs1" />
  <sodipodi:namedview
     id="namedview1"
     pagecolor="#ffffff"
     bordercolor="#000000"
     borderopacity="0.25"
     inkscape:showpageshadow="2"
     inkscape:pageopacity="0.0"
     inkscape:pagecheckerboard="0"
     inkscape:deskcolor="#d1d1d1"
     inkscape:zoom="45.254834"
     inkscape:cx="11.534679"
     inkscape:cy="8.9824658"
     inkscape:window-width="2560"
     inkscape:window-height="1369"
     inkscape:window-x="-8"
     inkscape:window-y="-8"
     inkscape:window-maximized="1"
     inkscape:current-layer="svg1"
     showguides="true">
    <sodipodi:guide
       position="5.7870632,10.550516"
       orientation="1,0"
       id="guide2"
       inkscape:locked="false" />
    <sodipodi:guide
       position="8.0536629,11.052061"
       orientation="0,-1"
       id="guide3"
       inkscape:locked="false" />
  </sodipodi:namedview>
  <g
     fill="#fc7f7f"
     id="g1"
     transform="matrix(0.66656058,0,0,0.66656058,2.6675153,5.5870329)">
    <path
       d="m 6.6251301,2.3337839 c 0.054808,4.77e-5 0.1066022,0.037856 0.1338513,0.098699 L 8.6545373,6.6332597 9.9524923,5.0621933 C 9.9888005,5.0182312 10.044423,4.9949694 10.101216,5 c 0.05652,0.00493 0.107045,0.037267 0.135203,0.086531 l 2.420146,4.1913127 c 0.06663,0.1154519 -0.01678,0.2597227 -0.150076,0.2595913 L 6.6251301,9.5333177 H 3.5533048 C 3.4360457,9.532179 3.3635355,9.3698505 3.4221567,9.2399252 L 6.4926312,2.4324833 c 0.027251,-0.060843 0.077688,-0.098651 0.1324989,-0.098699 z"
       stroke-width="0.692242"
       transform="matrix(1.2357528,0,0,1.2357528,-1.936323,-1.283966)"
       id="path1" />
  </g>
  <path
     d="m 5.9785156,1.7890625 c 0,0 -0.3557568,-0.00281 -0.5791646,0.1323481 C 4.9682467,2.3952307 5.0209109,2.3229038 3.0817138,4.4923772 2.8040589,4.829625 2.8691406,5.0820312 2.8691406,5.0820312 v 8.0234378 c 0,0.03829 0.0021,0.07601 0.00586,0.113281 0.00376,0.03727 0.00828,0.07331 0.015625,0.109375 0.014685,0.07213 0.036544,0.14278 0.064453,0.208984 0.027909,0.0662 0.061889,0.12868 0.1015625,0.1875 0.039673,0.05882 0.084789,0.114086 0.1347657,0.164063 0.049977,0.04998 0.1052417,0.09509 0.1640625,0.134766 0.058821,0.03967 0.1212959,0.07365 0.1875,0.101562 0.066204,0.02791 0.1368571,0.04977 0.2089843,0.06445 0.036064,0.0073 0.072104,0.01186 0.109375,0.01563 0.037271,0.0038 0.074986,0.0059 0.1132813,0.0059 h 8.0507821 c 0.03829,0 0.07601,-0.0021 0.113281,-0.0059 0.03727,-0.0038 0.07331,-0.0083 0.109375,-0.01563 0.07213,-0.01469 0.14278,-0.03654 0.208984,-0.06445 0.0662,-0.02791 0.12868,-0.06189 0.1875,-0.101562 0.05882,-0.03967 0.114086,-0.08479 0.164063,-0.134766 0.04998,-0.04998 0.09509,-0.105242 0.134765,-0.164063 0.03967,-0.05882 0.07365,-0.121296 0.101563,-0.1875 0.02791,-0.0662 0.04977,-0.136857 0.06445,-0.208984 0.0073,-0.03606 0.01186,-0.0721 0.01563,-0.109375 0.0038,-0.03727 0.0059,-0.07499 0.0059,-0.113281 V 2.8945313 c 0,-0.038295 -0.0021,-0.076011 -0.0059,-0.1132813 -0.0038,-0.037271 -0.0083,-0.073311 -0.01563,-0.109375 -0.01469,-0.072127 -0.03654,-0.1427803 -0.06445,-0.2089844 -0.02791,-0.066204 -0.06189,-0.1286793 -0.101563,-0.1875 C 12.90369,2.2165696 12.85857,2.1613052 12.808595,2.1113281 12.758615,2.0613511 12.703353,2.0162361 12.644532,1.9765625 12.585712,1.9368895 12.523236,1.9029095 12.457032,1.875 12.390832,1.847091 12.320175,1.825231 12.248048,1.810547 c -0.03606,-0.00734 -0.07211,-0.011863 -0.109375,-0.015625 -0.03727,-0.00376 -0.07499,-0.00586 -0.113281,-0.00586 z"
     style="fill:none;stroke:#ffffff;stroke-width:1.558;stroke-linejoin:round;stroke-miterlimit:3.5;stroke-dasharray:none;stroke-opacity:1"
     id="path7"
     sodipodi:nodetypes="ccccsscssscsccssscsssssccssscsccssscsc" />
  <path
     style="display:inline;fill:#ffffff;fill-opacity:1;stroke:#ffffff;stroke-width:0;stroke-linejoin:round;stroke-miterlimit:3.5;stroke-dasharray:none;stroke-opacity:1"
     d="m 2.4166587,5.449484 c 0,0 2.2699439,0 3.3704045,0 0.12351,0 0.2360751,-0.018182 0.3471934,-0.1285848 0.1164054,-0.1156561 0.1242416,-0.2345816 0.1242416,-0.3621037 0,-1.2408819 0,-3.6796009 0,-3.6796009 z"
     id="path2"
     sodipodi:nodetypes="cssscc" />
</svg>
