<svg height="16" viewBox="0 0 16 16" width="16" xmlns="http://www.w3.org/2000/svg"><g fill="#fc7f7f"><path d="m6.6251301 2.3337839c.054808.0000477.1066022.037856.1338513.098699l1.8955559 4.2007768 1.297955-1.5710664c.0363082-.0439621.0919307-.0672239.1487237-.0621933.05652.00493.107045.037267.135203.086531l2.420146 4.1913127c.06663.1154519-.01678.2597227-.150076.2595913l-5.8813589-.0041173h-3.0718253c-.1172591-.0011387-.1897693-.1634672-.1311481-.2933925l3.0704745-6.8074419c.027251-.060843.077688-.098651.1324989-.098699z" stroke-width=".692242" transform="matrix(1.2357528 0 0 1.2357528 -1.936323 -1.283966)"/><rect height="2.469147" ry=".643059" stroke-linejoin="round" stroke-miterlimit="3.5" stroke-width="2.23441" width="11.466038" x="2.266981" y="11.921351"/></g></svg>